# xmcd
#
# Track frame offsets:
#	150
#	18581
#	35883
#	51214
#	66831
#	84240
#	100358
#	116346
#	133934
#	149143
#	161947
#	180216
#	195848
#	212338
#
# Disc length: 3010 seconds
#
# Revision: 1
# Processed by: cddbd v1.5.1PL2 Copyright (c) Steve Scherf et al.
# Submitted via: audiograbber 1.83.01
#
DISCID=c60bc00e
DTITLE=Star Disc - SD120
DYEAR=1900
DGENRE=Karaoke
TTITLE0=Chesney, Kenny - I Go Back
TTITLE1=Evans, Sara - Suds In The Bucket
TTITLE2=Cotter, Brad - I Meant To
TTITLE3=Johnson, Carolyn Dawn and Keith Urban - Die Of A Broken Heart
TTITLE4=Bentley, Dierks - How Am I Doin'
TTITLE5=Big and Rich - Save A Horse (Ride A Cowboy)
TTITLE6=Blue Country - That's Cool
TTITLE7=Rushlow - Sweet Summer Rain
TTITLE8=Holy, Steve - Put Your Best Dress On
TTITLE9=Poe, Michelle - Just One Of The Boys
TTITLE10=Larsen, Blaine - In My High School
TTITLE11=Loveless, Patty - I Wanna Believe
TTITLE12=Emerick, Scotty - Watch, The
TTITLE13=Buffett, Jimmy and Black and Chesney and Jackson and Keith and Strait - Hey Good
TTITLE13=Lookin'
EXTD=
EXTT0=
EXTT1=
EXTT2=
EXTT3=
EXTT4=
EXTT5=
EXTT6=
EXTT7=
EXTT8=
EXTT9=
EXTT10=
EXTT11=
EXTT12=
EXTT13=
PLAYORDER=
